<svg width="45" height="55" viewBox="0 0 45 55" fill="none" xmlns="http://www.w3.org/2000/svg">
<path d="M23.6753 41.5716H23.5392C22.8945 41.552 22.2613 41.3956 21.6816 41.1127C21.1019 40.8298 20.5889 40.4268 20.1766 39.9305L9.97983 29.4316C2.54287 21.7764 2.54559 12.5291 9.98527 5.28379C13.8092 1.56308 18.1829 -0.252329 22.641 0.0282219C26.7589 0.288344 30.7448 2.28897 34.17 5.81493L44.4361 16.3805C44.5864 16.5654 44.6621 16.7998 44.6482 17.0377C44.6343 17.2756 44.5319 17.4997 44.3612 17.6658C44.1904 17.8319 43.9637 17.928 43.7257 17.9351C43.4877 17.9422 43.2557 17.8599 43.0753 17.7043L32.8119 7.14005C29.7214 3.9573 26.1629 2.15278 22.524 1.92398C18.6184 1.67476 14.7373 3.30903 11.3094 6.64568C4.60725 13.1665 4.6195 21.1894 11.3407 28.1078L21.6204 38.6952C21.8604 38.9901 22.1609 39.2299 22.5016 39.3984C22.8422 39.5669 23.2151 39.6601 23.595 39.6717C24.2944 39.6812 24.9259 39.4456 25.3396 38.9908C25.5367 38.7635 25.6865 38.4991 25.78 38.213C25.8735 37.927 25.9088 37.6251 25.8839 37.3252C25.8624 36.9677 25.7686 36.6184 25.6081 36.2984C25.4476 35.9784 25.2238 35.6943 24.9504 35.4634L24.885 35.4022L14.77 25C12.5559 22.7215 11.3679 20.1734 11.3175 17.6348C11.2713 14.9955 12.4688 12.4106 14.7836 10.1594C19.454 5.61473 25.0102 5.75228 29.6466 10.5257L32.9806 13.9564L34.0802 15.0895L36.4235 17.5C36.4562 17.5354 39.7195 20.8925 39.7576 20.9334C39.8599 21.0191 39.943 21.1254 40.0016 21.2453C40.0602 21.3653 40.093 21.4962 40.0978 21.6297C40.1026 21.7631 40.0794 21.8961 40.0296 22.0199C39.9798 22.1438 39.9046 22.2558 39.8087 22.3488C39.7129 22.4417 39.5987 22.5134 39.4734 22.5593C39.3481 22.6052 39.2146 22.6243 39.0815 22.6153C38.9484 22.6063 38.8186 22.5693 38.7007 22.5069C38.5827 22.4445 38.4792 22.358 38.3968 22.253L35.0695 18.8279L32.7234 16.4132L31.6089 15.2651L28.2885 11.8481C24.4237 7.86867 19.9874 7.74882 16.109 11.5199C14.1521 13.4266 13.1805 15.4694 13.2172 17.5994C13.254 19.6423 14.2624 21.7478 16.1335 23.6749L26.2119 34.0471C26.6713 34.4418 27.0465 34.9252 27.3152 35.4683C27.5838 36.0114 27.7404 36.6031 27.7754 37.208C27.8257 37.7713 27.7561 38.3388 27.5713 38.8733C27.3865 39.4077 27.0906 39.8968 26.7033 40.3086C26.3159 40.7203 25.8458 41.0452 25.3239 41.262C24.802 41.4787 24.2401 41.5824 23.6753 41.5661V41.5716Z" fill="#F24800"/>
<path d="M23.9853 54.8292C23.6859 54.8292 23.3861 54.8197 23.0858 54.8006C18.9693 54.5405 14.982 52.5398 11.5568 49.0139L1.29746 38.4483C1.19735 38.3619 1.11629 38.2557 1.05943 38.1363C1.00258 38.0168 0.971176 37.8869 0.967223 37.7547C0.96327 37.6225 0.986852 37.4909 1.03647 37.3683C1.08609 37.2457 1.16066 37.1348 1.25543 37.0426C1.35021 36.9504 1.46312 36.8789 1.58698 36.8328C1.71084 36.7866 1.84295 36.7668 1.97489 36.7745C2.10684 36.7822 2.23574 36.8173 2.35339 36.8775C2.47105 36.9378 2.57488 37.0219 2.6583 37.1245L12.9217 47.6888C16.0135 50.8715 19.5707 52.6747 23.211 52.9048C27.1084 53.1473 30.9963 51.5184 34.4256 48.1831C41.1264 41.6624 41.1155 33.6394 34.3943 26.721L24.1146 16.1336C23.8744 15.8387 23.5736 15.599 23.2327 15.4307C22.8917 15.2625 22.5186 15.1696 22.1386 15.1585C21.8268 15.1304 21.5127 15.1721 21.219 15.2806C20.9253 15.3892 20.6594 15.5618 20.4406 15.7859C20.2219 16.0101 20.0557 16.2801 19.9542 16.5765C19.8527 16.8729 19.8184 17.1882 19.8538 17.4996C19.8748 17.8571 19.9683 18.2066 20.1289 18.5267C20.2894 18.8468 20.5134 19.1308 20.7873 19.3613L20.8526 19.4226L30.9636 29.8247C33.1777 32.1046 34.3725 34.6513 34.4174 37.1899C34.4637 39.8292 33.2648 42.4141 30.9514 44.6653C28.638 46.9166 25.9925 48.0824 23.343 47.9611C20.805 47.8495 18.2929 46.5856 16.0761 44.3044L12.7434 40.8725L9.30053 37.3315L5.97329 33.8995C5.87487 33.8127 5.79543 33.7065 5.73996 33.5875C5.68448 33.4685 5.65416 33.3394 5.6509 33.2081C5.64763 33.0768 5.6715 32.9463 5.721 32.8247C5.77049 32.7031 5.84455 32.5931 5.93854 32.5015C6.03252 32.4099 6.1444 32.3387 6.26716 32.2923C6.38993 32.246 6.52092 32.2256 6.65195 32.2323C6.78297 32.239 6.9112 32.2728 7.02858 32.3314C7.14597 32.39 7.24999 32.4723 7.33412 32.5731L10.6722 36.0064C12.3202 37.7129 14.0539 39.4942 14.1043 39.5446L17.441 42.9807C19.3135 44.9078 21.3875 45.9769 23.4287 46.064C25.572 46.1512 27.6473 45.2292 29.6191 43.3089C31.591 41.3886 32.549 39.3594 32.5109 37.228C32.4755 35.1852 31.4672 33.0797 29.596 31.1526L19.5163 20.7777C19.0576 20.3823 18.6828 19.8988 18.4142 19.3558C18.1457 18.8129 17.9887 18.2215 17.9527 17.6167C17.9014 17.0416 17.9749 16.4621 18.1681 15.918C18.3612 15.3739 18.6696 14.878 19.072 14.4642C19.4743 14.0504 19.9613 13.7284 20.4995 13.5203C21.0377 13.3123 21.6145 13.223 22.1903 13.2586C22.8343 13.2771 23.4671 13.4323 24.0466 13.7141C24.6261 13.9958 25.1391 14.3976 25.5516 14.8929L35.7497 25.3904C43.1867 33.0456 43.1839 42.2984 35.7429 49.5382C32.1789 53.0151 28.1304 54.8292 23.9853 54.8292Z" fill="#F24800"/>
</svg>
