<svg width="331" height="67" viewBox="0 0 331 67" fill="none" xmlns="http://www.w3.org/2000/svg">
<path d="M31.1532 67.0006C33.4644 67.0006 35.5854 65.8791 36.66 64.0935L37.6299 62.4735L14.4625 17.7862C13.8538 16.7808 13.1404 16.0584 12.3133 15.6261C11.4861 15.1861 10.5728 14.9615 9.57393 14.9615L0 14.8896L25.6568 64.0851C26.1897 64.9821 26.9886 65.7129 27.939 66.2114C28.8903 66.7183 29.9931 67.0006 31.1532 67.0006Z" fill="url(#paint0_linear_199_153)"/>
<path d="M37.6301 62.5327L64.7228 14.8002C65.2744 13.8227 64.8083 12.6877 63.648 12.4407C62.8585 12.2646 62.078 12.6168 61.7264 13.2504L48.77 36.2351C48.5514 36.6223 48.0378 36.7634 47.6378 36.5694C47.229 36.3671 47.0669 35.8918 47.2766 35.5217L57.7503 16.991C58.3494 15.9344 57.5124 14.6666 56.2279 14.6666H55.9231C55.2861 14.6666 54.6958 14.992 54.4007 15.5203L44.631 32.8093C44.4213 33.1794 43.9077 33.3287 43.5085 33.1265C43.09 32.9325 42.9376 32.4661 43.1473 32.0788L50.2915 19.622C50.9003 18.5483 50.044 17.2715 48.7409 17.2977L47.9797 17.3066C47.333 17.3245 46.7525 17.6588 46.4767 18.1961C43.6609 23.5044 30.6783 47.4217 30.355 48.6364L37.6301 62.5327Z" fill="url(#paint1_linear_199_153)"/>
<path d="M64.4275 8.32293L68.6987 0.839457C68.9938 0.323098 69.5728 0 70.2042 0L70.2251 0C71.5089 0 72.3305 1.26478 71.729 2.31392L67.4368 9.79814C67.1449 10.307 66.5764 10.6279 65.9539 10.6346C64.6629 10.6488 63.8243 9.37953 64.4275 8.32293Z" fill="#FE1313"/>
<path d="M56.9676 10.577L59.5141 6.13047C59.8092 5.61411 60.3881 5.29102 61.0195 5.29102H61.0405C62.3242 5.29102 63.1459 6.5558 62.5443 7.60493L59.9777 12.0507C59.6858 12.5596 59.1173 12.8805 58.4948 12.8872C57.2022 12.9021 56.3644 11.6336 56.9676 10.577Z" fill="#08CC04"/>
<path d="M49.7342 12.8414L51.3268 10.0738C51.6219 9.55747 52.2008 9.23438 52.8322 9.23438H52.8532C54.1369 9.23438 54.9586 10.4992 54.357 11.5483L52.7435 14.3159C52.4516 14.8248 51.8831 15.1456 51.2606 15.1524C49.9689 15.1673 49.1311 13.898 49.7342 12.8414Z" fill="#FEC400"/>
<g filter="url(#filter0_i_199_153)">
<path d="M85.9798 29.6055L78.7318 12.8055H82.9318L89.2678 27.6855H86.7958L93.2278 12.8055H97.0918L89.8198 29.6055H85.9798ZM98.4944 29.6055V12.8055H101.71L111.622 24.9015H110.062V12.8055H113.902V29.6055H110.71L100.774 17.5095H102.334V29.6055H98.4944ZM125.917 29.8935C124.621 29.8935 123.413 29.6855 122.293 29.2695C121.189 28.8375 120.229 28.2295 119.413 27.4455C118.597 26.6615 117.957 25.7415 117.493 24.6855C117.045 23.6295 116.821 22.4695 116.821 21.2055C116.821 19.9415 117.045 18.7815 117.493 17.7255C117.957 16.6695 118.597 15.7495 119.413 14.9655C120.245 14.1815 121.213 13.5815 122.317 13.1655C123.421 12.7335 124.629 12.5175 125.941 12.5175C127.397 12.5175 128.709 12.7735 129.877 13.2855C131.061 13.7815 132.053 14.5175 132.853 15.4935L130.357 17.7975C129.781 17.1415 129.141 16.6535 128.437 16.3335C127.733 15.9975 126.965 15.8295 126.133 15.8295C125.349 15.8295 124.629 15.9575 123.973 16.2135C123.317 16.4695 122.749 16.8375 122.269 17.3175C121.789 17.7975 121.413 18.3655 121.141 19.0215C120.885 19.6775 120.757 20.4055 120.757 21.2055C120.757 22.0055 120.885 22.7335 121.141 23.3895C121.413 24.0455 121.789 24.6135 122.269 25.0935C122.749 25.5735 123.317 25.9415 123.973 26.1975C124.629 26.4535 125.349 26.5815 126.133 26.5815C126.965 26.5815 127.733 26.4215 128.437 26.1015C129.141 25.7655 129.781 25.2615 130.357 24.5895L132.853 26.8935C132.053 27.8695 131.061 28.6135 129.877 29.1255C128.709 29.6375 127.389 29.8935 125.917 29.8935Z" fill="black"/>
<path d="M150.316 29.8935C149.02 29.8935 147.812 29.6855 146.692 29.2695C145.588 28.8375 144.628 28.2295 143.812 27.4455C142.996 26.6615 142.356 25.7415 141.892 24.6855C141.444 23.6295 141.22 22.4695 141.22 21.2055C141.22 19.9415 141.444 18.7815 141.892 17.7255C142.356 16.6695 142.996 15.7495 143.812 14.9655C144.644 14.1815 145.612 13.5815 146.716 13.1655C147.82 12.7335 149.028 12.5175 150.34 12.5175C151.796 12.5175 153.108 12.7735 154.276 13.2855C155.46 13.7815 156.452 14.5175 157.252 15.4935L154.756 17.7975C154.18 17.1415 153.54 16.6535 152.836 16.3335C152.132 15.9975 151.364 15.8295 150.532 15.8295C149.748 15.8295 149.028 15.9575 148.372 16.2135C147.716 16.4695 147.148 16.8375 146.668 17.3175C146.188 17.7975 145.812 18.3655 145.54 19.0215C145.284 19.6775 145.156 20.4055 145.156 21.2055C145.156 22.0055 145.284 22.7335 145.54 23.3895C145.812 24.0455 146.188 24.6135 146.668 25.0935C147.148 25.5735 147.716 25.9415 148.372 26.1975C149.028 26.4535 149.748 26.5815 150.532 26.5815C151.364 26.5815 152.132 26.4215 152.836 26.1015C153.54 25.7655 154.18 25.2615 154.756 24.5895L157.252 26.8935C156.452 27.8695 155.46 28.6135 154.276 29.1255C153.108 29.6375 151.788 29.8935 150.316 29.8935ZM167.686 29.8935C166.358 29.8935 165.126 29.6775 163.99 29.2455C162.87 28.8135 161.894 28.2055 161.062 27.4215C160.246 26.6375 159.606 25.7175 159.142 24.6615C158.694 23.6055 158.47 22.4535 158.47 21.2055C158.47 19.9575 158.694 18.8055 159.142 17.7495C159.606 16.6935 160.254 15.7735 161.086 14.9895C161.918 14.2055 162.894 13.5975 164.014 13.1655C165.134 12.7335 166.35 12.5175 167.662 12.5175C168.99 12.5175 170.206 12.7335 171.31 13.1655C172.43 13.5975 173.398 14.2055 174.214 14.9895C175.046 15.7735 175.694 16.6935 176.158 17.7495C176.622 18.7895 176.854 19.9415 176.854 21.2055C176.854 22.4535 176.622 23.6135 176.158 24.6855C175.694 25.7415 175.046 26.6615 174.214 27.4455C173.398 28.2135 172.43 28.8135 171.31 29.2455C170.206 29.6775 168.998 29.8935 167.686 29.8935ZM167.662 26.5815C168.414 26.5815 169.102 26.4535 169.726 26.1975C170.366 25.9415 170.926 25.5735 171.406 25.0935C171.886 24.6135 172.254 24.0455 172.51 23.3895C172.782 22.7335 172.918 22.0055 172.918 21.2055C172.918 20.4055 172.782 19.6775 172.51 19.0215C172.254 18.3655 171.886 17.7975 171.406 17.3175C170.942 16.8375 170.39 16.4695 169.75 16.2135C169.11 15.9575 168.414 15.8295 167.662 15.8295C166.91 15.8295 166.214 15.9575 165.574 16.2135C164.95 16.4695 164.398 16.8375 163.918 17.3175C163.438 17.7975 163.062 18.3655 162.79 19.0215C162.534 19.6775 162.406 20.4055 162.406 21.2055C162.406 21.9895 162.534 22.7175 162.79 23.3895C163.062 24.0455 163.43 24.6135 163.894 25.0935C164.374 25.5735 164.934 25.9415 165.574 26.1975C166.214 26.4535 166.91 26.5815 167.662 26.5815ZM179.776 29.6055V12.8055H182.992L192.904 24.9015H191.344V12.8055H195.184V29.6055H191.992L182.056 17.5095H183.616V29.6055H179.776ZM204.679 29.8935C203.335 29.8935 202.047 29.7175 200.815 29.3655C199.583 28.9975 198.591 28.5255 197.839 27.9495L199.159 25.0215C199.879 25.5335 200.727 25.9575 201.703 26.2935C202.695 26.6135 203.695 26.7735 204.703 26.7735C205.471 26.7735 206.087 26.7015 206.551 26.5575C207.031 26.3975 207.383 26.1815 207.607 25.9095C207.831 25.6375 207.943 25.3255 207.943 24.9735C207.943 24.5255 207.767 24.1735 207.415 23.9175C207.063 23.6455 206.599 23.4295 206.023 23.2695C205.447 23.0935 204.807 22.9335 204.103 22.7895C203.415 22.6295 202.719 22.4375 202.015 22.2135C201.327 21.9895 200.695 21.7015 200.119 21.3495C199.543 20.9975 199.071 20.5335 198.703 19.9575C198.351 19.3815 198.175 18.6455 198.175 17.7495C198.175 16.7895 198.431 15.9175 198.943 15.1335C199.471 14.3335 200.255 13.7015 201.295 13.2375C202.351 12.7575 203.671 12.5175 205.255 12.5175C206.311 12.5175 207.351 12.6455 208.375 12.9015C209.399 13.1415 210.303 13.5095 211.087 14.0055L209.887 16.9575C209.103 16.5095 208.319 16.1815 207.535 15.9735C206.751 15.7495 205.983 15.6375 205.231 15.6375C204.479 15.6375 203.863 15.7255 203.383 15.9015C202.903 16.0775 202.559 16.3095 202.351 16.5975C202.143 16.8695 202.039 17.1895 202.039 17.5575C202.039 17.9895 202.215 18.3415 202.567 18.6135C202.919 18.8695 203.383 19.0775 203.959 19.2375C204.535 19.3975 205.167 19.5575 205.855 19.7175C206.559 19.8775 207.255 20.0615 207.943 20.2695C208.647 20.4775 209.287 20.7575 209.863 21.1095C210.439 21.4615 210.903 21.9255 211.255 22.5015C211.623 23.0775 211.807 23.8055 211.807 24.6855C211.807 25.6295 211.543 26.4935 211.015 27.2775C210.487 28.0615 209.695 28.6935 208.639 29.1735C207.599 29.6535 206.279 29.8935 204.679 29.8935ZM221.927 29.8935C219.543 29.8935 217.679 29.2295 216.335 27.9015C214.991 26.5735 214.319 24.6775 214.319 22.2135V12.8055H218.207V22.0695C218.207 23.6695 218.535 24.8215 219.191 25.5255C219.847 26.2295 220.767 26.5815 221.951 26.5815C223.135 26.5815 224.055 26.2295 224.711 25.5255C225.367 24.8215 225.695 23.6695 225.695 22.0695V12.8055H229.535V22.2135C229.535 24.6775 228.863 26.5735 227.519 27.9015C226.175 29.2295 224.311 29.8935 221.927 29.8935ZM233.377 29.6055V12.8055H237.265V26.4375H245.689V29.6055H233.377ZM249.771 29.6055V15.9735H244.395V12.8055H259.035V15.9735H253.659V29.6055H249.771ZM258.076 29.6055L265.564 12.8055H269.404L276.916 29.6055H272.836L266.692 14.7735H268.228L262.06 29.6055H258.076ZM261.82 26.0055L262.852 23.0535H271.492L272.548 26.0055H261.82ZM278.659 29.6055V12.8055H281.875L291.787 24.9015H290.227V12.8055H294.067V29.6055H290.875L280.939 17.5095H282.499V29.6055H278.659ZM306.081 29.8935C304.785 29.8935 303.577 29.6855 302.457 29.2695C301.353 28.8375 300.393 28.2295 299.577 27.4455C298.761 26.6615 298.121 25.7415 297.657 24.6855C297.209 23.6295 296.985 22.4695 296.985 21.2055C296.985 19.9415 297.209 18.7815 297.657 17.7255C298.121 16.6695 298.761 15.7495 299.577 14.9655C300.409 14.1815 301.377 13.5815 302.481 13.1655C303.585 12.7335 304.793 12.5175 306.105 12.5175C307.561 12.5175 308.873 12.7735 310.041 13.2855C311.225 13.7815 312.217 14.5175 313.017 15.4935L310.521 17.7975C309.945 17.1415 309.305 16.6535 308.601 16.3335C307.897 15.9975 307.129 15.8295 306.297 15.8295C305.513 15.8295 304.793 15.9575 304.137 16.2135C303.481 16.4695 302.913 16.8375 302.433 17.3175C301.953 17.7975 301.577 18.3655 301.305 19.0215C301.049 19.6775 300.921 20.4055 300.921 21.2055C300.921 22.0055 301.049 22.7335 301.305 23.3895C301.577 24.0455 301.953 24.6135 302.433 25.0935C302.913 25.5735 303.481 25.9415 304.137 26.1975C304.793 26.4535 305.513 26.5815 306.297 26.5815C307.129 26.5815 307.897 26.4215 308.601 26.1015C309.305 25.7655 309.945 25.2615 310.521 24.5895L313.017 26.8935C312.217 27.8695 311.225 28.6135 310.041 29.1255C308.873 29.6375 307.553 29.8935 306.081 29.8935ZM319.678 29.6055V22.7415L320.566 25.0935L313.174 12.8055H317.302L322.966 22.2375H320.59L326.278 12.8055H330.094L322.702 25.0935L323.566 22.7415V29.6055H319.678Z" fill="url(#paint2_linear_199_153)"/>
</g>
<path d="M84.1362 51.8778H92.0562V53.7478H84.1362V51.8778ZM84.3342 58.7198H93.3102V60.6338H82.1342V45.2338H93.0022V47.1478H84.3342V58.7198ZM111.151 48.8638C112.089 48.8638 112.918 49.0471 113.637 49.4138C114.355 49.7805 114.913 50.3378 115.309 51.0858C115.719 51.8338 115.925 52.7798 115.925 53.9238V60.6338H113.813V54.1658C113.813 53.0365 113.549 52.1858 113.021 51.6138C112.493 51.0418 111.752 50.7558 110.799 50.7558C110.095 50.7558 109.479 50.9025 108.951 51.1958C108.423 51.4891 108.012 51.9218 107.719 52.4938C107.44 53.0658 107.301 53.7771 107.301 54.6278V60.6338H105.189V54.1658C105.189 53.0365 104.925 52.1858 104.397 51.6138C103.883 51.0418 103.143 50.7558 102.175 50.7558C101.485 50.7558 100.877 50.9025 100.349 51.1958C99.8205 51.4891 99.4098 51.9218 99.1165 52.4938C98.8232 53.0658 98.6765 53.7771 98.6765 54.6278V60.6338H96.5645V48.9738H98.5885V52.0758L98.2585 51.2838C98.6252 50.5211 99.1898 49.9271 99.9525 49.5018C100.715 49.0765 101.603 48.8638 102.615 48.8638C103.729 48.8638 104.69 49.1425 105.497 49.6998C106.303 50.2425 106.831 51.0711 107.081 52.1858L106.223 51.8338C106.575 50.9391 107.191 50.2205 108.071 49.6778C108.951 49.1351 109.977 48.8638 111.151 48.8638ZM125.993 60.7658C125.025 60.7658 124.137 60.5458 123.331 60.1058C122.539 59.6511 121.901 58.9838 121.417 58.1038C120.947 57.2238 120.713 56.1238 120.713 54.8038C120.713 53.4838 120.94 52.3838 121.395 51.5038C121.864 50.6238 122.495 49.9638 123.287 49.5238C124.093 49.0838 124.995 48.8638 125.993 48.8638C127.137 48.8638 128.149 49.1131 129.029 49.6118C129.909 50.1105 130.605 50.8071 131.119 51.7018C131.632 52.5818 131.889 53.6158 131.889 54.8038C131.889 55.9918 131.632 57.0331 131.119 57.9278C130.605 58.8225 129.909 59.5191 129.029 60.0178C128.149 60.5165 127.137 60.7658 125.993 60.7658ZM119.811 64.9018V48.9738H121.835V52.1198L121.703 54.8258L121.923 57.5318V64.9018H119.811ZM125.817 58.9178C126.565 58.9178 127.232 58.7491 127.819 58.4118C128.42 58.0745 128.889 57.5978 129.227 56.9818C129.579 56.3511 129.755 55.6251 129.755 54.8038C129.755 53.9678 129.579 53.2491 129.227 52.6478C128.889 52.0318 128.42 51.5551 127.819 51.2178C127.232 50.8805 126.565 50.7118 125.817 50.7118C125.083 50.7118 124.416 50.8805 123.815 51.2178C123.228 51.5551 122.759 52.0318 122.407 52.6478C122.069 53.2491 121.901 53.9678 121.901 54.8038C121.901 55.6251 122.069 56.3511 122.407 56.9818C122.759 57.5978 123.228 58.0745 123.815 58.4118C124.416 58.7491 125.083 58.9178 125.817 58.9178ZM139.801 60.7658C138.627 60.7658 137.586 60.5091 136.677 59.9958C135.767 59.4825 135.049 58.7785 134.521 57.8838C133.993 56.9745 133.729 55.9478 133.729 54.8038C133.729 53.6451 133.993 52.6185 134.521 51.7238C135.049 50.8291 135.767 50.1325 136.677 49.6338C137.586 49.1205 138.627 48.8638 139.801 48.8638C140.959 48.8638 141.993 49.1205 142.903 49.6338C143.827 50.1325 144.545 50.8291 145.059 51.7238C145.587 52.6038 145.851 53.6305 145.851 54.8038C145.851 55.9625 145.587 56.9891 145.059 57.8838C144.545 58.7785 143.827 59.4825 142.903 59.9958C141.993 60.5091 140.959 60.7658 139.801 60.7658ZM139.801 58.9178C140.549 58.9178 141.216 58.7491 141.803 58.4118C142.404 58.0745 142.873 57.5978 143.211 56.9818C143.548 56.3511 143.717 55.6251 143.717 54.8038C143.717 53.9678 143.548 53.2491 143.211 52.6478C142.873 52.0318 142.404 51.5551 141.803 51.2178C141.216 50.8805 140.549 50.7118 139.801 50.7118C139.053 50.7118 138.385 50.8805 137.799 51.2178C137.212 51.5551 136.743 52.0318 136.391 52.6478C136.039 53.2491 135.863 53.9678 135.863 54.8038C135.863 55.6251 136.039 56.3511 136.391 56.9818C136.743 57.5978 137.212 58.0745 137.799 58.4118C138.385 58.7491 139.053 58.9178 139.801 58.9178ZM150.913 60.6338L146.579 48.9738H148.581L152.431 59.5338H151.485L155.489 48.9738H157.271L161.187 59.5338H160.263L164.201 48.9738H166.093L161.737 60.6338H159.713L156.039 50.9978H156.655L152.937 60.6338H150.913ZM173.106 60.7658C171.859 60.7658 170.759 60.5091 169.806 59.9958C168.867 59.4825 168.134 58.7785 167.606 57.8838C167.093 56.9891 166.836 55.9625 166.836 54.8038C166.836 53.6451 167.085 52.6185 167.584 51.7238C168.097 50.8291 168.794 50.1325 169.674 49.6338C170.569 49.1205 171.573 48.8638 172.688 48.8638C173.817 48.8638 174.815 49.1131 175.68 49.6118C176.545 50.1105 177.22 50.8145 177.704 51.7238C178.203 52.6185 178.452 53.6671 178.452 54.8698C178.452 54.9578 178.445 55.0605 178.43 55.1778C178.43 55.2951 178.423 55.4051 178.408 55.5078H168.486V53.9898H177.308L176.45 54.5178C176.465 53.7698 176.311 53.1025 175.988 52.5158C175.665 51.9291 175.218 51.4745 174.646 51.1518C174.089 50.8145 173.436 50.6458 172.688 50.6458C171.955 50.6458 171.302 50.8145 170.73 51.1518C170.158 51.4745 169.711 51.9365 169.388 52.5378C169.065 53.1245 168.904 53.7991 168.904 54.5618V54.9138C168.904 55.6911 169.08 56.3878 169.432 57.0038C169.799 57.6051 170.305 58.0745 170.95 58.4118C171.595 58.7491 172.336 58.9178 173.172 58.9178C173.861 58.9178 174.485 58.8005 175.042 58.5658C175.614 58.3311 176.113 57.9791 176.538 57.5098L177.704 58.8738C177.176 59.4898 176.516 59.9591 175.724 60.2818C174.947 60.6045 174.074 60.7658 173.106 60.7658ZM181.385 60.6338V48.9738H183.409V52.1418L183.211 51.3498C183.533 50.5431 184.076 49.9271 184.839 49.5018C185.601 49.0765 186.54 48.8638 187.655 48.8638V50.9098C187.567 50.8951 187.479 50.8878 187.391 50.8878C187.317 50.8878 187.244 50.8878 187.171 50.8878C186.041 50.8878 185.147 51.2251 184.487 51.8998C183.827 52.5745 183.497 53.5498 183.497 54.8258V60.6338H181.385ZM190.258 60.6338V48.9738H192.37V60.6338H190.258ZM191.314 46.7298C190.903 46.7298 190.559 46.5978 190.28 46.3338C190.016 46.0698 189.884 45.7471 189.884 45.3658C189.884 44.9698 190.016 44.6398 190.28 44.3758C190.559 44.1118 190.903 43.9798 191.314 43.9798C191.725 43.9798 192.062 44.1118 192.326 44.3758C192.605 44.6251 192.744 44.9405 192.744 45.3218C192.744 45.7178 192.612 46.0551 192.348 46.3338C192.084 46.5978 191.739 46.7298 191.314 46.7298ZM202.628 48.8638C203.582 48.8638 204.418 49.0471 205.136 49.4138C205.87 49.7805 206.442 50.3378 206.852 51.0858C207.263 51.8338 207.468 52.7798 207.468 53.9238V60.6338H205.356V54.1658C205.356 53.0365 205.078 52.1858 204.52 51.6138C203.978 51.0418 203.208 50.7558 202.21 50.7558C201.462 50.7558 200.81 50.9025 200.252 51.1958C199.695 51.4891 199.262 51.9218 198.954 52.4938C198.661 53.0658 198.514 53.7771 198.514 54.6278V60.6338H196.402V48.9738H198.426V52.1198L198.096 51.2838C198.478 50.5211 199.064 49.9271 199.856 49.5018C200.648 49.0765 201.572 48.8638 202.628 48.8638ZM216.481 65.0338C215.41 65.0338 214.369 64.8798 213.357 64.5718C212.36 64.2785 211.546 63.8531 210.915 63.2958L211.927 61.6678C212.47 62.1371 213.137 62.5038 213.929 62.7678C214.721 63.0465 215.55 63.1858 216.415 63.1858C217.794 63.1858 218.806 62.8631 219.451 62.2178C220.096 61.5725 220.419 60.5898 220.419 59.2698V56.8058L220.639 54.4958L220.529 52.1638V48.9738H222.531V59.0498C222.531 61.1031 222.018 62.6138 220.991 63.5818C219.964 64.5498 218.461 65.0338 216.481 65.0338ZM216.217 60.1498C215.088 60.1498 214.076 59.9151 213.181 59.4458C212.301 58.9618 211.597 58.2945 211.069 57.4438C210.556 56.5931 210.299 55.6105 210.299 54.4958C210.299 53.3665 210.556 52.3838 211.069 51.5478C211.597 50.6971 212.301 50.0371 213.181 49.5678C214.076 49.0985 215.088 48.8638 216.217 48.8638C217.214 48.8638 218.124 49.0691 218.945 49.4798C219.766 49.8758 220.419 50.4918 220.903 51.3278C221.402 52.1638 221.651 53.2198 221.651 54.4958C221.651 55.7571 221.402 56.8058 220.903 57.6418C220.419 58.4778 219.766 59.1085 218.945 59.5338C218.124 59.9445 217.214 60.1498 216.217 60.1498ZM216.459 58.3018C217.236 58.3018 217.926 58.1405 218.527 57.8178C219.128 57.4951 219.598 57.0478 219.935 56.4758C220.287 55.9038 220.463 55.2438 220.463 54.4958C220.463 53.7478 220.287 53.0878 219.935 52.5158C219.598 51.9438 219.128 51.5038 218.527 51.1958C217.926 50.8731 217.236 50.7118 216.459 50.7118C215.682 50.7118 214.985 50.8731 214.369 51.1958C213.768 51.5038 213.291 51.9438 212.939 52.5158C212.602 53.0878 212.433 53.7478 212.433 54.4958C212.433 55.2438 212.602 55.9038 212.939 56.4758C213.291 57.0478 213.768 57.4951 214.369 57.8178C214.985 58.1405 215.682 58.3018 216.459 58.3018ZM235.841 60.6338V47.1478H230.561V45.2338H243.299V47.1478H238.019V60.6338H235.841ZM251.613 48.8638C252.566 48.8638 253.402 49.0471 254.121 49.4138C254.854 49.7805 255.426 50.3378 255.837 51.0858C256.247 51.8338 256.453 52.7798 256.453 53.9238V60.6338H254.341V54.1658C254.341 53.0365 254.062 52.1858 253.505 51.6138C252.962 51.0418 252.192 50.7558 251.195 50.7558C250.447 50.7558 249.794 50.9025 249.237 51.1958C248.679 51.4891 248.247 51.9218 247.939 52.4938C247.645 53.0658 247.499 53.7771 247.499 54.6278V60.6338H245.387V44.3098H247.499V52.1198L247.081 51.2838C247.462 50.5211 248.049 49.9271 248.841 49.5018C249.633 49.0765 250.557 48.8638 251.613 48.8638ZM265.553 60.7658C264.307 60.7658 263.207 60.5091 262.253 59.9958C261.315 59.4825 260.581 58.7785 260.053 57.8838C259.54 56.9891 259.283 55.9625 259.283 54.8038C259.283 53.6451 259.533 52.6185 260.031 51.7238C260.545 50.8291 261.241 50.1325 262.121 49.6338C263.016 49.1205 264.021 48.8638 265.135 48.8638C266.265 48.8638 267.262 49.1131 268.127 49.6118C268.993 50.1105 269.667 50.8145 270.151 51.7238C270.65 52.6185 270.899 53.6671 270.899 54.8698C270.899 54.9578 270.892 55.0605 270.877 55.1778C270.877 55.2951 270.87 55.4051 270.855 55.5078H260.933V53.9898H269.755L268.897 54.5178C268.912 53.7698 268.758 53.1025 268.435 52.5158C268.113 51.9291 267.665 51.4745 267.093 51.1518C266.536 50.8145 265.883 50.6458 265.135 50.6458C264.402 50.6458 263.749 50.8145 263.177 51.1518C262.605 51.4745 262.158 51.9365 261.835 52.5378C261.513 53.1245 261.351 53.7991 261.351 54.5618V54.9138C261.351 55.6911 261.527 56.3878 261.879 57.0038C262.246 57.6051 262.752 58.0745 263.397 58.4118C264.043 58.7491 264.783 58.9178 265.619 58.9178C266.309 58.9178 266.932 58.8005 267.489 58.5658C268.061 58.3311 268.56 57.9791 268.985 57.5098L270.151 58.8738C269.623 59.4898 268.963 59.9591 268.171 60.2818C267.394 60.6045 266.521 60.7658 265.553 60.7658ZM283.106 60.6338V47.1478H277.826V45.2338H290.564V47.1478H285.284V60.6338H283.106ZM296.641 60.7658C295.395 60.7658 294.295 60.5091 293.341 59.9958C292.403 59.4825 291.669 58.7785 291.141 57.8838C290.628 56.9891 290.371 55.9625 290.371 54.8038C290.371 53.6451 290.621 52.6185 291.119 51.7238C291.633 50.8291 292.329 50.1325 293.209 49.6338C294.104 49.1205 295.109 48.8638 296.223 48.8638C297.353 48.8638 298.35 49.1131 299.215 49.6118C300.081 50.1105 300.755 50.8145 301.239 51.7238C301.738 52.6185 301.987 53.6671 301.987 54.8698C301.987 54.9578 301.98 55.0605 301.965 55.1778C301.965 55.2951 301.958 55.4051 301.943 55.5078H292.021V53.9898H300.843L299.985 54.5178C300 53.7698 299.846 53.1025 299.523 52.5158C299.201 51.9291 298.753 51.4745 298.181 51.1518C297.624 50.8145 296.971 50.6458 296.223 50.6458C295.49 50.6458 294.837 50.8145 294.265 51.1518C293.693 51.4745 293.246 51.9365 292.923 52.5378C292.601 53.1245 292.439 53.7991 292.439 54.5618V54.9138C292.439 55.6911 292.615 56.3878 292.967 57.0038C293.334 57.6051 293.84 58.0745 294.485 58.4118C295.131 58.7491 295.871 58.9178 296.707 58.9178C297.397 58.9178 298.02 58.8005 298.577 58.5658C299.149 58.3311 299.648 57.9791 300.073 57.5098L301.239 58.8738C300.711 59.4898 300.051 59.9591 299.259 60.2818C298.482 60.6045 297.609 60.7658 296.641 60.7658ZM310.002 60.7658C308.814 60.7658 307.751 60.5091 306.812 59.9958C305.888 59.4825 305.162 58.7785 304.634 57.8838C304.106 56.9891 303.842 55.9625 303.842 54.8038C303.842 53.6451 304.106 52.6185 304.634 51.7238C305.162 50.8291 305.888 50.1325 306.812 49.6338C307.751 49.1205 308.814 48.8638 310.002 48.8638C311.058 48.8638 311.997 49.0765 312.818 49.5018C313.654 49.9125 314.299 50.5285 314.754 51.3498L313.148 52.3838C312.767 51.8118 312.297 51.3938 311.74 51.1298C311.197 50.8511 310.611 50.7118 309.98 50.7118C309.217 50.7118 308.535 50.8805 307.934 51.2178C307.333 51.5551 306.856 52.0318 306.504 52.6478C306.152 53.2491 305.976 53.9678 305.976 54.8038C305.976 55.6398 306.152 56.3658 306.504 56.9818C306.856 57.5978 307.333 58.0745 307.934 58.4118C308.535 58.7491 309.217 58.9178 309.98 58.9178C310.611 58.9178 311.197 58.7858 311.74 58.5218C312.297 58.2431 312.767 57.8178 313.148 57.2458L314.754 58.2578C314.299 59.0645 313.654 59.6878 312.818 60.1278C311.997 60.5531 311.058 60.7658 310.002 60.7658ZM323.564 48.8638C324.517 48.8638 325.353 49.0471 326.072 49.4138C326.805 49.7805 327.377 50.3378 327.788 51.0858C328.199 51.8338 328.404 52.7798 328.404 53.9238V60.6338H326.292V54.1658C326.292 53.0365 326.013 52.1858 325.456 51.6138C324.913 51.0418 324.143 50.7558 323.146 50.7558C322.398 50.7558 321.745 50.9025 321.188 51.1958C320.631 51.4891 320.198 51.9218 319.89 52.4938C319.597 53.0658 319.45 53.7771 319.45 54.6278V60.6338H317.338V44.3098H319.45V52.1198L319.032 51.2838C319.413 50.5211 320 49.9271 320.792 49.5018C321.584 49.0765 322.508 48.8638 323.564 48.8638Z" fill="#808080"/>
<defs>
<filter id="filter0_i_199_153" x="78.7319" y="12.5176" width="251.362" height="21.376" filterUnits="userSpaceOnUse" color-interpolation-filters="sRGB">
<feFlood flood-opacity="0" result="BackgroundImageFix"/>
<feBlend mode="normal" in="SourceGraphic" in2="BackgroundImageFix" result="shape"/>
<feColorMatrix in="SourceAlpha" type="matrix" values="0 0 0 0 0 0 0 0 0 0 0 0 0 0 0 0 0 0 127 0" result="hardAlpha"/>
<feOffset dy="4"/>
<feGaussianBlur stdDeviation="2"/>
<feComposite in2="hardAlpha" operator="arithmetic" k2="-1" k3="1"/>
<feColorMatrix type="matrix" values="0 0 0 0 0 0 0 0 0 0 0 0 0 0 0 0 0 0 0.25 0"/>
<feBlend mode="normal" in2="shape" result="effect1_innerShadow_199_153"/>
</filter>
<linearGradient id="paint0_linear_199_153" x1="53.4344" y1="73.7006" x2="-1.51763" y2="20.2637" gradientUnits="userSpaceOnUse">
<stop offset="0.105208" stop-color="#68C5F4"/>
<stop offset="0.837854" stop-color="#021CB4"/>
</linearGradient>
<linearGradient id="paint1_linear_199_153" x1="27.9929" y1="48.4652" x2="69.5989" y2="20.3706" gradientUnits="userSpaceOnUse">
<stop stop-color="#192FA3"/>
<stop offset="0.3448" stop-color="#415FC9"/>
<stop offset="1" stop-color="#6CCFF8"/>
</linearGradient>
<linearGradient id="paint2_linear_199_153" x1="204.232" y1="13.1119" x2="204.393" y2="35.6059" gradientUnits="userSpaceOnUse">
<stop stop-color="#011276"/>
<stop offset="1" stop-color="#2C7ED9"/>
</linearGradient>
</defs>
</svg>
