<svg width="14" height="18" viewBox="0 0 14 18" fill="none" xmlns="http://www.w3.org/2000/svg">
<g opacity="0.8">
<path d="M3.917 7.83409C3.76859 7.83409 3.62626 7.89305 3.52132 7.99799C3.41638 8.10293 3.35742 8.24526 3.35742 8.39367C3.35742 8.54208 3.41638 8.68441 3.52132 8.78935C3.62626 8.89429 3.76859 8.95325 3.917 8.95325H9.51278C9.66119 8.95325 9.80352 8.89429 9.90846 8.78935C10.0134 8.68441 10.0724 8.54208 10.0724 8.39367C10.0724 8.24526 10.0134 8.10293 9.90846 7.99799C9.80352 7.89305 9.66119 7.83409 9.51278 7.83409H3.917ZM3.35742 10.632C3.35742 10.4836 3.41638 10.3412 3.52132 10.2363C3.62626 10.1314 3.76859 10.0724 3.917 10.0724H9.51278C9.66119 10.0724 9.80352 10.1314 9.90846 10.2363C10.0134 10.3412 10.0724 10.4836 10.0724 10.632C10.0724 10.7804 10.0134 10.9227 9.90846 11.0277C9.80352 11.1326 9.66119 11.1916 9.51278 11.1916H3.917C3.76859 11.1916 3.62626 11.1326 3.52132 11.0277C3.41638 10.9227 3.35742 10.7804 3.35742 10.632ZM3.35742 12.8703C3.35742 12.7219 3.41638 12.5796 3.52132 12.4746C3.62626 12.3697 3.76859 12.3107 3.917 12.3107H6.15531C6.30372 12.3107 6.44605 12.3697 6.55099 12.4746C6.65593 12.5796 6.71489 12.7219 6.71489 12.8703C6.71489 13.0187 6.65593 13.161 6.55099 13.266C6.44605 13.3709 6.30372 13.4299 6.15531 13.4299H3.917C3.76859 13.4299 3.62626 13.3709 3.52132 13.266C3.41638 13.161 3.35742 13.0187 3.35742 12.8703Z" fill="#303E3D"/>
<path d="M8.39367 0H2.23831C1.64467 0 1.07535 0.235821 0.655586 0.655586C0.235821 1.07535 0 1.64467 0 2.23831V15.6682C0 16.2618 0.235821 16.8311 0.655586 17.2509C1.07535 17.6707 1.64467 17.9065 2.23831 17.9065H11.1916C11.7852 17.9065 12.3545 17.6707 12.7743 17.2509C13.194 16.8311 13.4299 16.2618 13.4299 15.6682V5.0362L8.39367 0ZM8.39367 1.11916V3.35747C8.39367 3.80269 8.57053 4.22969 8.88535 4.54451C9.20018 4.85933 9.62717 5.0362 10.0724 5.0362H12.3107V15.6682C12.3107 15.965 12.1928 16.2497 11.9829 16.4595C11.773 16.6694 11.4884 16.7873 11.1916 16.7873H2.23831C1.94149 16.7873 1.65683 16.6694 1.44695 16.4595C1.23707 16.2497 1.11916 15.965 1.11916 15.6682V2.23831C1.11916 1.94149 1.23707 1.65683 1.44695 1.44695C1.65683 1.23707 1.94149 1.11916 2.23831 1.11916H8.39367Z" fill="#303E3D"/>
</g>
</svg>
