<svg width="3" height="14" viewBox="0 0 3 14" fill="none" xmlns="http://www.w3.org/2000/svg">
<path opacity="0.8" d="M2.916 4.7539L0.167946 5.19573L0.069544 5.78074L0.609554 5.90851C0.962361 6.01627 1.03196 6.17946 0.955161 6.63053L0.069544 11.9694C-0.163261 13.3503 0.195547 14 1.03916 14C1.69318 14 2.45279 13.6121 2.7972 13.0794L2.9028 12.439C2.66279 12.7099 2.31239 12.8177 2.07958 12.8177C1.74958 12.8177 1.62957 12.5206 1.71478 11.9971L2.916 4.7539ZM3 1.53948C3 1.94777 2.87357 2.33934 2.64852 2.62805C2.42347 2.91676 2.11824 3.07895 1.79998 3.07895C1.48171 3.07895 1.17648 2.91676 0.951433 2.62805C0.726385 2.33934 0.599954 1.94777 0.599954 1.53948C0.599954 1.13118 0.726385 0.73961 0.951433 0.450902C1.17648 0.162194 1.48171 0 1.79998 0C2.11824 0 2.42347 0.162194 2.64852 0.450902C2.87357 0.73961 3 1.13118 3 1.53948Z" fill="#303E3D"/>
</svg>
