<svg width="358" height="76" viewBox="0 0 358 76" fill="none" xmlns="http://www.w3.org/2000/svg">
<path d="M31.5722 56.7684H31.3863C30.506 56.7418 29.6414 56.5282 28.8497 56.1418C28.0581 55.7555 27.3575 55.2052 26.7945 54.5274L12.8702 40.1906C2.71464 29.7369 2.71835 17.1092 12.8777 7.21532C18.0995 2.13448 24.0721 -0.34457 30.1599 0.0385387C35.7831 0.393751 41.226 3.12573 45.9034 7.94062L59.9224 22.3686C60.1276 22.621 60.2309 22.9412 60.2119 23.266C60.193 23.5909 60.0532 23.8969 59.82 24.1237C59.5868 24.3505 59.2773 24.4817 58.9522 24.4914C58.6272 24.5011 58.3104 24.3887 58.0641 24.1763L44.0488 9.75016C39.8286 5.40392 34.9691 2.93975 30 2.62731C24.6667 2.28698 19.3669 4.51868 14.6858 9.07507C5.53368 17.9796 5.5504 28.9354 14.7285 38.3829L28.7661 52.8406C29.0938 53.2433 29.5042 53.5708 29.9694 53.8008C30.4346 54.0309 30.9438 54.1582 31.4625 54.1741C32.4177 54.1871 33.2799 53.8653 33.8449 53.2442C34.1141 52.9339 34.3186 52.5728 34.4463 52.1821C34.5739 51.7915 34.6222 51.3793 34.5882 50.9697C34.5588 50.4816 34.4307 50.0046 34.2115 49.5676C33.9924 49.1306 33.6868 48.7427 33.3134 48.4274L33.2242 48.3437L19.4115 34.139C16.388 31.0276 14.7657 27.548 14.6969 24.0814C14.6338 20.4772 16.2691 16.9474 19.43 13.8732C25.8077 7.66724 33.3952 7.85508 39.7264 14.3735L44.2792 19.0582L45.7807 20.6055L48.9807 23.8973C49.0253 23.9457 53.4815 28.5299 53.5335 28.5857C53.6732 28.7028 53.7867 28.848 53.8668 29.0118C53.9468 29.1756 53.9916 29.3544 53.9981 29.5366C54.0047 29.7188 53.973 29.9004 53.905 30.0695C53.837 30.2387 53.7342 30.3917 53.6034 30.5186C53.4726 30.6454 53.3165 30.7434 53.1455 30.8061C52.9744 30.8688 52.792 30.8948 52.6103 30.8825C52.4285 30.8702 52.2513 30.8198 52.0902 30.7346C51.9292 30.6493 51.7878 30.5312 51.6752 30.3878L47.1317 25.7106L43.928 22.4132L42.406 20.8454L37.8718 16.1793C32.5942 10.7451 26.5362 10.5815 21.24 15.7311C18.5678 18.3348 17.241 21.1244 17.2911 24.0331C17.3413 26.8227 18.7183 29.6979 21.2735 32.3294L35.036 46.4933C35.6634 47.0323 36.1758 47.6924 36.5427 48.434C36.9095 49.1756 37.1233 49.9836 37.1712 50.8098C37.2398 51.5789 37.1447 52.3539 36.8924 53.0837C36.64 53.8135 36.2361 54.4815 35.7071 55.0437C35.1781 55.606 34.5362 56.0497 33.8235 56.3457C33.1108 56.6417 32.3435 56.7832 31.5722 56.761V56.7684Z" fill="#F24800"/>
<path d="M31.9966 74.873C31.5878 74.873 31.1783 74.86 30.7683 74.8339C25.1469 74.4787 19.7021 71.7467 15.0247 66.9318L1.01502 52.5039C0.878309 52.3859 0.767614 52.2408 0.689976 52.0778C0.612338 51.9147 0.569457 51.7373 0.564059 51.5567C0.55866 51.3762 0.590864 51.1965 0.65862 51.0291C0.726377 50.8616 0.828204 50.7102 0.957626 50.5843C1.08705 50.4584 1.24123 50.3608 1.41037 50.2978C1.57952 50.2348 1.75991 50.2076 1.94009 50.2182C2.12027 50.2287 2.29629 50.2766 2.45696 50.3589C2.61762 50.4412 2.75942 50.5561 2.87332 50.6962L16.8886 65.1223C21.1107 69.4685 25.9683 71.9308 30.9392 72.2451C36.2614 72.5762 41.5705 70.3519 46.2535 65.7974C55.4037 56.8929 55.3889 45.9371 46.2107 36.4895L32.1731 22.0318C31.8451 21.6292 31.4344 21.3018 30.9688 21.0721C30.5033 20.8423 29.9938 20.7155 29.4749 20.7002C29.0491 20.6619 28.6201 20.7189 28.219 20.8671C27.8179 21.0153 27.4549 21.251 27.1561 21.5571C26.8574 21.8632 26.6305 22.232 26.4919 22.6367C26.3533 23.0415 26.3065 23.472 26.3548 23.8972C26.3834 24.3854 26.5112 24.8627 26.7304 25.2998C26.9496 25.7369 27.2556 26.1247 27.6296 26.4394L27.7188 26.5231L41.5259 40.7279C44.5494 43.8411 46.181 47.3189 46.2423 50.7855C46.3055 54.3897 44.6683 57.9195 41.5092 60.9936C38.3501 64.0678 34.7376 65.6598 31.1195 65.4942C27.6537 65.3417 24.2233 63.6159 21.1962 60.5008L16.6452 55.8142L11.9437 50.9789L7.40014 46.2923C7.26574 46.1737 7.15726 46.0287 7.08151 45.8662C7.00575 45.7037 6.96435 45.5273 6.95989 45.3481C6.95544 45.1688 6.98803 44.9906 7.05562 44.8246C7.12321 44.6585 7.22434 44.5082 7.35268 44.3831C7.48102 44.258 7.6338 44.1608 7.80144 44.0976C7.96908 44.0343 8.14797 44.0064 8.32689 44.0156C8.50581 44.0248 8.68091 44.0708 8.84121 44.1509C9.00151 44.231 9.14355 44.3433 9.25844 44.4809L13.8168 49.1693C16.0672 51.4996 18.4347 53.9322 18.5035 54.001L23.06 58.6931C25.617 61.3247 28.4491 62.7846 31.2365 62.9036C34.1634 63.0226 36.9973 61.7636 39.6899 59.1413C42.3826 56.5191 43.6909 53.748 43.6388 50.8375C43.5905 48.0479 42.2135 45.1727 39.6584 42.5412L25.8939 28.3736C25.2675 27.8337 24.7558 27.1735 24.389 26.432C24.0222 25.6906 23.8079 24.883 23.7587 24.0571C23.6887 23.2717 23.7891 22.4805 24.0528 21.7375C24.3166 20.9945 24.7377 20.3173 25.2871 19.7522C25.8366 19.1871 26.5016 18.7474 27.2365 18.4633C27.9715 18.1792 28.7591 18.0572 29.5455 18.1059C30.4249 18.1311 31.2889 18.3431 32.0803 18.7278C32.8716 19.1126 33.5722 19.6613 34.1355 20.3376L48.0616 34.6726C58.2172 45.1262 58.2135 57.7614 48.0523 67.6478C43.1854 72.3958 37.657 74.873 31.9966 74.873Z" fill="#F24800"/>
<path d="M122.463 36.6477C123.051 35.7082 123.464 34.6698 123.682 33.5828C123.897 32.4983 124.003 31.3949 123.998 30.2892C124 29.2325 123.938 28.1767 123.812 27.1276C123.693 26.083 123.391 25.0676 122.92 24.1278C122.427 23.1801 121.746 22.3429 120.918 21.6674C119.931 20.8913 118.808 20.3049 117.607 19.9378C116.094 19.4668 114.538 19.149 112.961 18.9893C110.852 18.7672 108.732 18.6642 106.611 18.6806H100.598C98.6913 18.6806 97.0319 18.6397 95.666 18.5579C94.5434 18.5037 93.4258 18.3726 92.3211 18.1655C91.6465 18.0468 90.9905 17.8399 90.3699 17.5499C90.0425 17.3963 89.7555 17.1683 89.5318 16.8841C89.3378 16.607 89.2106 16.2887 89.1601 15.9542C89.0648 15.3734 89.0201 14.7853 89.0263 14.1968C89.0263 13.2204 89.1824 12.4225 89.4909 11.8256C89.7492 11.3272 90.2676 10.8957 91.0296 10.5628C91.9736 10.1425 93.3208 9.83563 95.036 9.64966C97.3732 9.42732 99.7203 9.32738 102.068 9.35024H106.44C108.583 9.35024 110.402 9.39859 111.852 9.4953C113.153 9.58271 114.204 9.78728 114.951 10.1053C115.461 10.2915 115.885 10.6571 116.144 11.1337C116.33 11.5057 116.568 12.2589 116.568 13.65V15.1861H124.001V13.6518C124.01 12.5472 123.908 11.4444 123.697 10.3601C123.491 9.31243 123.088 8.31377 122.507 7.41795C121.901 6.50946 121.114 5.73684 120.194 5.14906C119.151 4.50017 118.019 4.0071 116.834 3.68543C115.357 3.28098 113.846 3.01145 112.32 2.88016C110.638 2.7165 108.657 2.63281 106.431 2.63281H102.055C99.3454 2.63281 96.9501 2.7351 94.932 2.93781C93.1353 3.09994 91.3551 3.41097 89.6098 3.86769C88.2438 4.21722 86.9378 4.76949 85.7353 5.50613C84.7417 6.12726 83.8783 6.93575 83.1931 7.88661C82.5558 8.8002 82.113 9.8352 81.8923 10.9273C81.6742 12.0058 81.5677 13.1039 81.5745 14.2042C81.5705 15.2242 81.6363 16.2432 81.7715 17.2542C81.9073 18.281 82.2358 19.273 82.7397 20.1777C83.2915 21.1299 84.0458 21.949 84.9492 22.5768C85.8783 23.2389 87.0398 23.7689 88.5134 24.1929C90.1714 24.6412 91.8651 24.9448 93.5754 25.1005C95.9109 25.3206 98.2559 25.4224 100.602 25.4055H106.613C108.515 25.3799 110.416 25.4787 112.305 25.7012C113.597 25.8872 114.582 26.1624 115.228 26.5455C115.691 26.7891 116.044 27.1982 116.219 27.6911C116.47 28.5353 116.585 29.4143 116.559 30.2948C116.559 31.299 116.403 32.1396 116.092 32.7943C115.825 33.3522 115.349 33.8171 114.637 34.1984C113.797 34.6466 112.61 34.9851 111.107 35.2027C109.073 35.4625 107.024 35.58 104.974 35.5541H99.1336C96.9873 35.5541 95.1717 35.5058 93.7445 35.4072C92.4437 35.3198 91.4086 35.1115 90.6616 34.7898C90.1478 34.5984 89.7224 34.2244 89.4667 33.739C89.2697 33.3485 89.0375 32.586 89.0375 31.1633V29.6271H81.5931V31.1633C81.5851 32.271 81.6872 33.3768 81.8979 34.4643C82.1003 35.5166 82.5035 36.5199 83.0853 37.4195C83.6875 38.3217 84.4625 39.0954 85.3655 39.6958C86.405 40.3688 87.5429 40.8758 88.7383 41.1985C90.2135 41.6021 91.7215 41.8747 93.2446 42.0131C95.2039 42.1985 97.1712 42.2854 99.1392 42.2734H104.971C107.159 42.2887 109.346 42.1751 111.521 41.9331C113.201 41.7499 114.86 41.4049 116.473 40.9028C117.76 40.5048 118.978 39.9114 120.084 39.1435C121.029 38.4713 121.836 37.6241 122.463 36.6477Z" fill="white"/>
<path d="M156.68 41.4459V25.9412L178.435 3.36377H168.328L152.958 19.7854L137.59 3.36377H127.482L149.238 25.9412V41.4459H156.68Z" fill="white"/>
<path d="M221.492 36.6477C222.08 35.7082 222.493 34.6698 222.711 33.5828C222.925 32.4982 223.031 31.3948 223.027 30.2892C223.03 29.2325 222.968 28.1766 222.841 27.1276C222.72 26.084 222.416 25.0698 221.944 24.1315C221.45 23.1838 220.769 22.3466 219.942 21.6711C218.954 20.895 217.832 20.3086 216.631 19.9415C215.118 19.4705 213.561 19.1528 211.985 18.9931C209.876 18.7709 207.756 18.6679 205.635 18.6843H199.623C197.717 18.6843 196.057 18.6434 194.692 18.5616C193.569 18.5074 192.451 18.3763 191.347 18.1692C190.672 18.0508 190.016 17.8438 189.395 17.5536C189.068 17.4 188.781 17.172 188.557 16.8878C188.363 16.6107 188.236 16.2925 188.186 15.9579C188.09 15.3771 188.046 14.7891 188.052 14.2005C188.052 13.2241 188.208 12.4263 188.516 11.8293C188.775 11.3309 189.293 10.8994 190.055 10.5665C190.997 10.1462 192.346 9.83935 194.062 9.65338C196.399 9.43104 198.746 9.3311 201.093 9.35396H205.466C207.607 9.35396 209.428 9.40231 210.877 9.49902C212.178 9.58643 213.23 9.791 213.977 10.109C214.486 10.2956 214.909 10.6612 215.168 11.1375C215.363 11.5094 215.594 12.2626 215.594 13.6537V15.1899H223.027V13.6518C223.035 12.5472 222.933 11.4444 222.722 10.3601C222.517 9.31243 222.113 8.31377 221.533 7.41796C220.927 6.50946 220.139 5.73684 219.219 5.14906C218.176 4.50017 217.045 4.0071 215.859 3.68543C214.382 3.28098 212.871 3.01145 211.346 2.88016C209.673 2.7165 207.683 2.63281 205.457 2.63281H201.084C198.375 2.63281 195.979 2.7351 193.961 2.93781C192.165 3.09977 190.384 3.4108 188.639 3.86769C187.273 4.21722 185.967 4.76949 184.765 5.50613C183.77 6.12722 182.906 6.9357 182.221 7.88661C181.585 8.80099 181.142 9.83569 180.92 10.9273C180.703 12.006 180.597 13.104 180.604 14.2042C180.599 15.2242 180.665 16.2433 180.801 17.2542C180.937 18.281 181.265 19.273 181.769 20.1777C182.321 21.1299 183.075 21.949 183.978 22.5768C184.908 23.2389 186.069 23.7689 187.543 24.1929C189.201 24.6412 190.894 24.9448 192.605 25.1005C194.94 25.3206 197.285 25.4224 199.631 25.4055H205.643C207.544 25.3799 209.444 25.4786 211.333 25.7012C212.633 25.8872 213.611 26.1624 214.258 26.5455C214.72 26.7891 215.074 27.1982 215.248 27.6911C215.499 28.5353 215.614 29.4143 215.588 30.2948C215.588 31.299 215.432 32.1396 215.122 32.7943C214.854 33.3522 214.378 33.8171 213.667 34.1984C212.827 34.6466 211.639 34.9851 210.136 35.2027C208.102 35.4625 206.053 35.58 204.003 35.5541H198.172C196.026 35.5541 194.21 35.5058 192.783 35.4072C191.482 35.3198 190.447 35.1115 189.7 34.7898C189.186 34.5984 188.761 34.2244 188.505 33.739C188.308 33.3485 188.076 32.586 188.076 31.1633V29.6271H180.643V31.1633C180.635 32.2709 180.737 33.3766 180.946 34.4643C181.15 35.5164 181.553 36.5196 182.135 37.4195C182.737 38.3217 183.512 39.0954 184.415 39.6958C185.451 40.3656 186.584 40.8707 187.775 41.1929C189.25 41.5966 190.758 41.8691 192.281 42.0075C194.241 42.193 196.208 42.2798 198.176 42.2679H204.007C206.195 42.2832 208.383 42.1695 210.558 41.9275C212.238 41.7444 213.896 41.3993 215.51 40.8972C216.796 40.4988 218.014 39.9055 219.121 39.1379C220.063 38.4667 220.867 37.6214 221.492 36.6477Z" fill="white"/>
<path d="M228.309 10.0812H245.801V41.4459H253.241V10.0812H270.734V3.36377H228.309V10.0812Z" fill="white"/>
<path d="M314.873 34.7285H284.261V25.4H313.416V18.6807H284.261V10.0812H314.873V3.36377H276.818V41.4459H314.873V34.7285Z" fill="white"/>
<path d="M329.741 34.7285V3.36377H322.299V41.4459H357.437V34.7285H329.741Z" fill="white"/>
<path d="M92.2202 67.6033H85.7533L84.6104 71.3135H80.459L86.3108 54.5757H91.8299L97.6557 71.3135H93.3723L92.2202 67.6033ZM86.6824 64.6741H91.3096L90.6685 62.6098C90.1946 61.1034 89.7486 59.5412 89.3677 58.0348H88.6987C88.2806 59.5412 87.8067 61.1034 87.3328 62.6098L86.6824 64.6741Z" fill="white"/>
<path d="M102.533 71.3138H98.7422V58.0909H102.459V61.6338H102.71C103.49 59.0673 105.107 57.7283 107.17 57.7283C109.706 57.7283 110.988 59.4857 110.988 62.3591V71.3138H107.197V63.4173C107.197 62.0782 106.584 61.1577 105.19 61.1577C103.574 61.1577 102.542 62.3014 102.542 63.9473L102.533 71.3138Z" fill="white"/>
<path d="M112.236 75.8047L112.793 72.5966C113.353 72.7166 113.923 72.782 114.495 72.7919C115.831 72.7919 116.528 72.5409 117.141 71.146L112.182 58.0906H116.333L117.643 62.9445C118.033 64.4323 118.507 66.1247 118.925 67.7427H119.399C119.817 66.0968 120.263 64.4509 120.598 63.0282L121.824 58.0906H125.892L120.689 71.3692C119.407 74.6052 117.734 76 114.419 76C113.687 76.0014 112.956 75.936 112.236 75.8047Z" fill="white"/>
<path d="M135.983 71.3135H132.275V54.5757H138.798L140.889 61.0476C141.223 62.1077 141.808 64.2278 142.282 66.2084H142.756C143.202 64.2278 143.76 62.0798 144.15 60.9081L146.241 54.5757H152.261V71.3135H148.247V64.3115C148.247 62.2751 148.359 59.8481 148.415 57.8396H148.006C147.448 60.0155 146.752 62.554 145.915 65.0368L143.964 70.4301H140.247L138.389 64.9345C137.553 62.3123 136.903 59.969 136.382 57.8488H135.964C135.992 59.8853 135.992 62.2565 135.992 64.3208L135.983 71.3135Z" fill="#F24800"/>
<path d="M155.077 56.2214V53.4875H159.035V56.2214H155.077ZM155.161 71.3133V58.0904H158.952V71.3133H155.161Z" fill="#F24800"/>
<path d="M160.958 67.5199L164.359 66.8225C164.693 68.2731 165.585 69.0263 167.23 69.0263C168.512 69.0263 169.153 68.6078 169.181 67.743C169.181 66.934 168.651 66.4877 166.226 66.0135C162.603 65.2324 161.376 64.0328 161.376 61.7732C161.376 59.2347 163.188 57.7283 166.923 57.7283C170.77 57.7283 172.024 59.2347 172.498 61.5501L169.125 62.2475C168.819 60.8805 168.205 60.3505 166.84 60.3505C165.585 60.3505 164.972 60.769 164.972 61.5501C164.972 62.2754 165.344 62.8054 167.704 63.2796C171.829 64.1444 172.833 65.5113 172.833 67.5757C172.833 70.1421 171.132 71.7043 167.146 71.7043C162.686 71.7043 161.32 69.9264 160.958 67.5199Z" fill="#F24800"/>
<path d="M174.032 67.5199L177.433 66.8225C177.767 68.2731 178.659 69.0263 180.304 69.0263C181.586 69.0263 182.227 68.6078 182.255 67.743C182.255 66.934 181.726 66.4877 179.301 66.0135C175.677 65.2324 174.45 64.0328 174.45 61.7732C174.45 59.2347 176.262 57.7283 179.997 57.7283C183.844 57.7283 185.098 59.2347 185.572 61.5501L182.199 62.2475C181.893 60.8805 181.27 60.3505 179.914 60.3505C178.659 60.3505 178.046 60.769 178.046 61.5501C178.046 62.2754 178.418 62.8054 180.778 63.2796C184.903 64.1444 185.907 65.5113 185.907 67.5757C185.907 70.1421 184.206 71.7043 180.22 71.7043C175.76 71.7043 174.395 69.9264 174.032 67.5199Z" fill="#F24800"/>
<path d="M187.913 56.2214V53.4875H191.871V56.2214H187.913ZM187.997 71.3133V58.0904H191.788V71.3133H187.997Z" fill="#F24800"/>
<path d="M193.935 64.7023C193.935 60.2947 196.555 57.7283 200.764 57.7283C204.889 57.7283 207.537 60.2947 207.537 64.7023C207.537 69.0542 204.973 71.7043 200.764 71.7043C196.471 71.7043 193.935 69.0542 193.935 64.7023ZM197.726 64.6744C197.726 67.0735 198.59 68.4683 200.736 68.4683C202.882 68.4683 203.746 67.0735 203.746 64.6744C203.746 62.2754 202.817 60.9084 200.736 60.9084C198.655 60.9084 197.726 62.2754 197.726 64.6744Z" fill="#F24800"/>
<path d="M213.362 71.3138H209.571V58.0909H213.288V61.6338H213.539C214.319 59.0673 215.936 57.7283 217.999 57.7283C220.535 57.7283 221.817 59.4857 221.817 62.3591V71.3138H218.027V63.4173C218.027 62.0782 217.413 61.1577 216.02 61.1577C214.403 61.1577 213.372 62.3014 213.372 63.9473L213.362 71.3138Z" fill="#F24800"/>
<path d="M227.83 67.3225V71.3117H223.704V67.3225H227.83Z" fill="#F24800"/>
<path d="M245.109 67.6033H238.644L237.501 71.3135H233.348L239.201 54.5757H244.72L250.544 71.3135H246.254L245.109 67.6033ZM239.564 64.6741H244.191L243.55 62.6098C243.076 61.1034 242.621 59.5412 242.24 58.0348H241.571C241.153 59.5412 240.679 61.1034 240.205 62.6098L239.564 64.6741Z" fill="white"/>
<path d="M255.425 71.3138H251.634V58.0909H255.341V61.6338H255.601C256.382 59.0673 257.998 57.7283 260.061 57.7283C262.596 57.7283 263.878 59.4857 263.878 62.3591V71.3138H260.087V63.4173C260.087 62.0782 259.474 61.1577 258.082 61.1577C256.465 61.1577 255.434 62.3014 255.434 63.9473L255.425 71.3138Z" fill="white"/>
<path d="M265.125 75.8047L265.683 72.5966C266.242 72.7167 266.811 72.7821 267.383 72.7919C268.721 72.7919 269.418 72.5409 270.031 71.146L265.069 58.0906H269.223L270.523 62.9445C270.914 64.4323 271.388 66.1247 271.806 67.7427H272.278C272.696 66.0968 273.144 64.4509 273.478 63.0282L274.703 58.0906H278.772L273.569 71.3692C272.287 74.6052 270.616 76 267.299 76C266.57 76.0007 265.842 75.9353 265.125 75.8047Z" fill="white"/>
<path d="M292.469 63.3072C292.831 64.9531 293.138 66.6268 293.416 68.4122H293.883C294.189 66.7105 294.552 65.0925 294.914 63.2793L295.918 58.0906H299.653L296.001 71.3134H291.04L289.925 65.6226C289.646 64.1162 289.395 62.554 289.2 60.9639H288.726C288.54 62.5261 288.252 64.1441 288.001 65.6226L286.97 71.3134H282.157L278.478 58.0906H282.38L283.549 63.2793C283.967 65.0925 284.329 66.6826 284.608 68.4122H285.11C285.389 66.6554 285.698 64.9537 286.039 63.3072L287.126 58.0906H291.4L292.469 63.3072Z" fill="white"/>
<path d="M304.622 71.3135H300.831V53.4041H304.622V61.6335H304.845C305.625 59.0949 307.159 57.728 309.305 57.728C311.814 57.728 313.068 59.4854 313.068 62.3588V71.3135H309.277V63.417C309.277 62.0779 308.636 61.1574 307.27 61.1574C305.653 61.1574 304.622 62.3011 304.622 63.947V71.3135Z" fill="white"/>
<path d="M314.991 64.9813C314.991 60.4063 317.472 57.7283 321.765 57.7283C325.834 57.7283 327.758 60.1273 327.758 63.7818C327.758 64.3397 327.73 64.8697 327.674 65.5671H318.726C318.949 67.6872 319.925 68.6357 321.737 68.6357C323.521 68.6357 324.078 67.7988 324.413 66.7946L327.59 67.6593C327.005 69.9468 325.472 71.6764 321.709 71.6764C317.723 71.6764 314.991 69.4726 314.991 64.9813ZM318.754 63.6423H324.273C324.218 61.578 323.344 60.5737 321.653 60.5737C319.925 60.5737 318.949 61.4664 318.754 63.6423Z" fill="white"/>
<path d="M329.849 71.3133V58.0904H333.444V62.3864H333.751C334.587 58.7041 335.702 57.9509 337.43 57.9509H337.821V62.3009H337.04C334.392 62.3009 333.64 63.082 333.64 65.4253V71.3114L329.849 71.3133Z" fill="white"/>
<path d="M338.99 64.9813C338.99 60.4063 341.471 57.7283 345.764 57.7283C349.833 57.7283 351.757 60.1273 351.757 63.7818C351.757 64.3397 351.729 64.8697 351.673 65.5671H342.725C342.948 67.6872 343.924 68.6357 345.736 68.6357C347.548 68.6357 348.077 67.7988 348.412 66.7946L351.59 67.6593C351.004 69.9468 349.471 71.6764 345.708 71.6764C341.722 71.6764 338.99 69.4726 338.99 64.9813ZM342.753 63.6423H348.272C348.217 61.578 347.343 60.5737 345.652 60.5737C343.961 60.5737 342.941 61.4664 342.755 63.6423H342.753Z" fill="white"/>
<path d="M357.304 67.3225V71.3117H353.179V67.3225H357.304Z" fill="#282828"/>
</svg>
