<svg width="18" height="18" viewBox="0 0 18 18" fill="none" xmlns="http://www.w3.org/2000/svg">
<path d="M15.6406 1.13342C15.9369 1.13342 16.2211 1.25284 16.4306 1.4654C16.6401 1.67795 16.7578 1.96625 16.7578 2.26685V11.3342C16.7578 11.6348 16.6401 11.9231 16.4306 12.1357C16.2211 12.3483 15.9369 12.4677 15.6406 12.4677H4.93127C4.33872 12.4678 3.77049 12.7067 3.35156 13.1319L1.11719 15.3987V2.26685C1.11719 1.96625 1.23489 1.67795 1.4444 1.4654C1.65392 1.25284 1.93808 1.13342 2.23438 1.13342H15.6406ZM2.23438 0C1.64178 0 1.07346 0.238828 0.654433 0.663944C0.235407 1.08906 0 1.66564 0 2.26685L0 16.7667C2.34776e-05 16.8789 0.032837 16.9885 0.0942876 17.0817C0.155738 17.1749 0.243063 17.2475 0.34521 17.2904C0.447357 17.3332 0.559734 17.3443 0.668118 17.3223C0.776502 17.3003 0.876021 17.2462 0.954078 17.1668L4.14141 13.9332C4.35088 13.7206 4.63499 13.6012 4.93127 13.6011H15.6406C16.2332 13.6011 16.8015 13.3623 17.2206 12.9371C17.6396 12.512 17.875 11.9354 17.875 11.3342V2.26685C17.875 1.66564 17.6396 1.08906 17.2206 0.663944C16.8015 0.238828 16.2332 0 15.6406 0L2.23438 0Z" fill="#303E3D"/>
<path d="M5.525 6.49996C5.525 6.78728 5.40516 7.06283 5.19183 7.26599C4.97851 7.46916 4.68918 7.58329 4.3875 7.58329C4.08582 7.58329 3.79649 7.46916 3.58317 7.26599C3.36984 7.06283 3.25 6.78728 3.25 6.49996C3.25 6.21264 3.36984 5.93709 3.58317 5.73393C3.79649 5.53076 4.08582 5.41663 4.3875 5.41663C4.68918 5.41663 4.97851 5.53076 5.19183 5.73393C5.40516 5.93709 5.525 6.21264 5.525 6.49996ZM10.075 6.49996C10.075 6.78728 9.95516 7.06283 9.74183 7.26599C9.52851 7.46916 9.23918 7.58329 8.9375 7.58329C8.63582 7.58329 8.34649 7.46916 8.13317 7.26599C7.91984 7.06283 7.8 6.78728 7.8 6.49996C7.8 6.21264 7.91984 5.93709 8.13317 5.73393C8.34649 5.53076 8.63582 5.41663 8.9375 5.41663C9.23918 5.41663 9.52851 5.53076 9.74183 5.73393C9.95516 5.93709 10.075 6.21264 10.075 6.49996ZM14.625 6.49996C14.625 6.78728 14.5052 7.06283 14.2918 7.26599C14.0785 7.46916 13.7892 7.58329 13.4875 7.58329C13.1858 7.58329 12.8965 7.46916 12.6832 7.26599C12.4698 7.06283 12.35 6.78728 12.35 6.49996C12.35 6.21264 12.4698 5.93709 12.6832 5.73393C12.8965 5.53076 13.1858 5.41663 13.4875 5.41663C13.7892 5.41663 14.0785 5.53076 14.2918 5.73393C14.5052 5.93709 14.625 6.21264 14.625 6.49996Z" fill="#303E3D"/>
</svg>
