<svg width="18" height="19" viewBox="0 0 18 19" fill="none" xmlns="http://www.w3.org/2000/svg">
<path d="M3.498 17.7333C3.35646 18.1559 3.07796 18.512 2.71171 18.7388C2.34547 18.9656 1.91506 19.0484 1.49656 18.9726C1.07806 18.8968 0.698422 18.6673 0.424737 18.3246C0.151052 17.982 0.000943565 17.5482 0.000943565 17.1C0.000943565 16.6518 0.151052 16.218 0.424737 15.8753C0.698422 15.5327 1.07806 15.3032 1.49656 15.2274C1.91506 15.1516 2.34547 15.2344 2.71171 15.4612C3.07796 15.6879 3.35646 16.0441 3.498 16.4667H13.2C15.2064 16.4667 16.8 15.0252 16.8 13.3C16.8 11.5748 15.2064 10.1333 13.2 10.1333H11.898C11.7743 10.5045 11.5445 10.8259 11.2404 11.0533C10.9362 11.2807 10.5727 11.4028 10.2 11.4028C9.82729 11.4028 9.46376 11.2807 9.15961 11.0533C8.85546 10.8259 8.62568 10.5045 8.502 10.1333H4.8C2.1672 10.1333 0 8.17253 0 5.7C0 3.22747 2.1672 1.26667 4.8 1.26667H14.502C14.6435 0.844101 14.922 0.487953 15.2883 0.261171C15.6545 0.0343886 16.0849 -0.0484252 16.5034 0.0273666C16.9219 0.103158 17.3016 0.332676 17.5753 0.675353C17.8489 1.01803 17.9991 1.4518 17.9991 1.9C17.9991 2.3482 17.8489 2.78198 17.5753 3.12465C17.3016 3.46733 16.9219 3.69685 16.5034 3.77264C16.0849 3.84843 15.6545 3.76562 15.2883 3.53884C14.922 3.31205 14.6435 2.9559 14.502 2.53334H4.8C2.7936 2.53334 1.2 3.9748 1.2 5.7C1.2 7.4252 2.7936 8.86667 4.8 8.86667H8.502C8.62568 8.49554 8.85546 8.17409 9.15961 7.9467C9.46376 7.7193 9.82729 7.59718 10.2 7.59718C10.5727 7.59718 10.9362 7.7193 11.2404 7.9467C11.5445 8.17409 11.7743 8.49554 11.898 8.86667H13.2C15.8328 8.86667 18 10.8275 18 13.3C18 15.7725 15.8328 17.7333 13.2 17.7333H3.498ZM16.2 2.53334C16.3591 2.53334 16.5117 2.46661 16.6243 2.34784C16.7368 2.22906 16.8 2.06797 16.8 1.9C16.8 1.73203 16.7368 1.57094 16.6243 1.45217C16.5117 1.3334 16.3591 1.26667 16.2 1.26667C16.0409 1.26667 15.8883 1.3334 15.7757 1.45217C15.6632 1.57094 15.6 1.73203 15.6 1.9C15.6 2.06797 15.6632 2.22906 15.7757 2.34784C15.8883 2.46661 16.0409 2.53334 16.2 2.53334ZM10.2 10.1333C10.3591 10.1333 10.5117 10.0666 10.6243 9.94783C10.7368 9.82906 10.8 9.66797 10.8 9.5C10.8 9.33203 10.7368 9.17094 10.6243 9.05217C10.5117 8.93339 10.3591 8.86667 10.2 8.86667C10.0409 8.86667 9.88826 8.93339 9.77574 9.05217C9.66321 9.17094 9.6 9.33203 9.6 9.5C9.6 9.66797 9.66321 9.82906 9.77574 9.94783C9.88826 10.0666 10.0409 10.1333 10.2 10.1333ZM1.8 17.7333C1.95913 17.7333 2.11174 17.6666 2.22426 17.5478C2.33679 17.4291 2.4 17.268 2.4 17.1C2.4 16.932 2.33679 16.7709 2.22426 16.6522C2.11174 16.5334 1.95913 16.4667 1.8 16.4667C1.64087 16.4667 1.48826 16.5334 1.37574 16.6522C1.26321 16.7709 1.2 16.932 1.2 17.1C1.2 17.268 1.26321 17.4291 1.37574 17.5478C1.48826 17.6666 1.64087 17.7333 1.8 17.7333Z" fill="white"/>
</svg>
