<svg width="20" height="25" viewBox="0 0 20 25" fill="none" xmlns="http://www.w3.org/2000/svg">
<path d="M6.20983 10.7044C6.00849 10.7044 5.8154 10.7824 5.67303 10.9212C5.53066 11.06 5.45068 11.2483 5.45068 11.4446C5.45068 11.6409 5.53066 11.8292 5.67303 11.968C5.8154 12.1068 6.00849 12.1848 6.20983 12.1848H13.8013C14.0026 12.1848 14.1957 12.1068 14.3381 11.968C14.4804 11.8292 14.5604 11.6409 14.5604 11.4446C14.5604 11.2483 14.4804 11.06 14.3381 10.9212C14.1957 10.7824 14.0026 10.7044 13.8013 10.7044H6.20983ZM5.45068 14.4053C5.45068 14.209 5.53066 14.0207 5.67303 13.8819C5.8154 13.7431 6.00849 13.6651 6.20983 13.6651H13.8013C14.0026 13.6651 14.1957 13.7431 14.3381 13.8819C14.4804 14.0207 14.5604 14.209 14.5604 14.4053C14.5604 14.6016 14.4804 14.7898 14.3381 14.9286C14.1957 15.0674 14.0026 15.1454 13.8013 15.1454H6.20983C6.00849 15.1454 5.8154 15.0674 5.67303 14.9286C5.53066 14.7898 5.45068 14.6016 5.45068 14.4053ZM5.45068 17.3659C5.45068 17.1696 5.53066 16.9814 5.67303 16.8425C5.8154 16.7037 6.00849 16.6258 6.20983 16.6258H9.2464C9.44774 16.6258 9.64083 16.7037 9.7832 16.8425C9.92556 16.9814 10.0055 17.1696 10.0055 17.3659C10.0055 17.5622 9.92556 17.7505 9.7832 17.8893C9.64083 18.0281 9.44774 18.1061 9.2464 18.1061H6.20983C6.00849 18.1061 5.8154 18.0281 5.67303 17.8893C5.53066 17.7505 5.45068 17.5622 5.45068 17.3659Z" fill="white"/>
<path d="M12.2831 0.455994H3.93257C3.12722 0.455994 2.35486 0.770919 1.78539 1.33149C1.21592 1.89206 0.895996 2.65235 0.895996 3.44512V21.3799C0.895996 22.1726 1.21592 22.9329 1.78539 23.4935C2.35486 24.0541 3.12722 24.369 3.93257 24.369H16.0789C16.8842 24.369 17.6566 24.0541 18.226 23.4935C18.7955 22.9329 19.1154 22.1726 19.1154 21.3799V7.18153L12.2831 0.455994ZM12.2831 1.95056V4.93968C12.2831 5.53426 12.5231 6.10448 12.9502 6.52491C13.3773 6.94533 13.9566 7.18153 14.5606 7.18153H17.5971V21.3799C17.5971 21.7763 17.4372 22.1564 17.1525 22.4367C16.8677 22.717 16.4815 22.8744 16.0789 22.8744H3.93257C3.52989 22.8744 3.14371 22.717 2.85898 22.4367C2.57424 22.1564 2.41428 21.7763 2.41428 21.3799V3.44512C2.41428 3.04874 2.57424 2.66859 2.85898 2.3883C3.14371 2.10802 3.52989 1.95056 3.93257 1.95056H12.2831Z" fill="white"/>
</svg>
