<svg width="20" height="20" viewBox="0 0 20 20" fill="none" xmlns="http://www.w3.org/2000/svg">
<path d="M0.126038 2.77985C-0.0430915 3.41593 -0.0419874 4.08527 0.12924 4.72079C0.300467 5.3563 0.635801 5.93566 1.10163 6.4008C1.56746 6.86594 2.14742 7.2005 2.78337 7.37097C3.41933 7.54144 4.08894 7.54181 4.72509 7.37206L12.654 15.1866C12.4892 15.7461 12.4572 16.3364 12.5604 16.9105C12.6636 17.4846 12.8993 18.0268 13.2487 18.494C13.5981 18.9612 14.0517 19.3405 14.5733 19.6019C15.095 19.8634 15.6704 19.9997 16.254 20C16.7916 19.9993 17.3227 19.883 17.8115 19.6591C18.3002 19.4353 18.7351 19.109 19.0867 18.7025C19.4382 18.2959 19.6983 17.8186 19.8492 17.3028C20.0001 16.787 20.0383 16.2448 19.9613 15.713C19.8843 15.1811 19.6938 14.672 19.4027 14.2202C19.1117 13.7684 18.7269 13.3844 18.2744 13.0942C17.8219 12.804 17.3123 12.6144 16.7801 12.5383C16.2479 12.4622 15.7056 12.5013 15.1899 12.653L7.37223 4.72723C7.54287 4.09109 7.54312 3.42128 7.37296 2.78502C7.20279 2.14875 6.86819 1.56842 6.40274 1.10227C5.93729 0.636122 5.35737 0.300552 4.72117 0.129242C4.08498 -0.0420686 3.4149 -0.0430918 2.77818 0.126275L5.45533 2.8036L5.00018 5.00096L2.80319 5.45593L0.126038 2.77985ZM16.8442 14.0529L17.5044 14.0854L17.8633 14.6416L18.4197 15.0003L18.4522 15.6615L18.7548 16.2502L18.4522 16.839L18.4197 17.5002L17.8633 17.8589L17.5044 18.4151L16.8429 18.4476L16.254 18.7501L15.665 18.4476L15.0035 18.4151L14.6447 17.8589L14.0882 17.5002L14.0557 16.839L13.7531 16.2502L14.0557 15.6615L14.0882 15.0003L14.6447 14.6416L15.0035 14.0854L15.665 14.0529L16.254 13.7504L16.8429 14.0529H16.8442Z" fill="white"/>
</svg>
