<svg width="26" height="126" viewBox="0 0 26 126" fill="none" xmlns="http://www.w3.org/2000/svg">
<path d="M19.6978 118.042C19.4167 118.042 19.1402 117.911 18.9654 117.663C17.109 115.044 15.3632 112.309 13.7767 109.539C13.5311 109.109 13.6794 108.561 14.1086 108.315C14.5379 108.069 15.0866 108.218 15.3322 108.647C16.8921 111.369 18.6069 114.052 20.4279 116.628C20.7134 117.033 20.6182 117.59 20.2155 117.878C20.0584 117.989 19.877 118.042 19.6978 118.042ZM10.2122 101.48C9.87143 101.48 9.54396 101.283 9.3935 100.951C8.07698 98.0264 6.89101 95.0061 5.87099 91.9748C5.71389 91.5057 5.96613 90.9968 6.43521 90.8397C6.90429 90.6826 7.41319 90.9349 7.57029 91.4039C8.57261 94.3799 9.73425 97.3449 11.0286 100.217C11.2322 100.668 11.0286 101.199 10.5795 101.403C10.46 101.456 10.3361 101.483 10.2122 101.483V101.48ZM4.12522 83.392C3.71588 83.392 3.34858 83.111 3.25344 82.6972C2.53875 79.5818 1.9679 76.389 1.56077 73.205C1.49882 72.7138 1.84399 72.2646 2.33519 72.2027C2.8264 72.1385 3.27556 72.4859 3.33752 72.9771C3.738 76.1013 4.2978 79.2366 4.99921 82.2945C5.10984 82.7769 4.80892 83.257 4.32657 83.3676C4.25797 83.3831 4.19159 83.3898 4.12522 83.3898V83.392ZM1.69574 64.4629C1.21339 64.4629 0.815112 64.0801 0.799623 63.5933C0.770859 62.6219 0.755371 61.6373 0.755371 60.6682C0.755371 58.4356 0.832811 56.1743 0.987695 53.9484C1.02088 53.455 1.44793 53.0833 1.94356 53.1165C2.43697 53.1497 2.8087 53.5789 2.77551 54.0723C2.62505 56.2562 2.5476 58.4755 2.5476 60.6682C2.5476 61.6196 2.56088 62.5865 2.58965 63.5402C2.60513 64.0358 2.21571 64.4474 1.72008 64.4629C1.71123 64.4629 1.70238 64.4629 1.69353 64.4629H1.69574ZM3.01226 45.4187C2.96137 45.4187 2.91269 45.4143 2.8618 45.4054C2.37502 45.3236 2.04534 44.8611 2.12942 44.3721C2.66487 41.2191 3.36407 38.0506 4.2093 34.9574C4.33984 34.4794 4.83326 34.1984 5.30897 34.329C5.7869 34.4595 6.06791 34.9529 5.93737 35.4287C5.10763 38.4666 4.41949 41.5754 3.8951 44.6708C3.82208 45.109 3.44151 45.4165 3.01226 45.4165V45.4187ZM8.03937 27.0074C7.93316 27.0074 7.82474 26.9874 7.72075 26.9476C7.25831 26.7706 7.02598 26.2528 7.20299 25.7904C8.34029 22.8078 9.6391 19.8362 11.0663 16.9576C11.2853 16.5151 11.823 16.3336 12.2677 16.5527C12.7102 16.7717 12.8917 17.3094 12.6726 17.7541C11.272 20.5819 9.99534 23.5003 8.87796 26.4299C8.74077 26.7883 8.40224 27.0074 8.03937 27.0074ZM16.5093 9.90148C16.3478 9.90148 16.1863 9.85723 16.038 9.76651C15.6176 9.50542 15.4871 8.95446 15.7482 8.53185C17.4276 5.81915 19.2596 3.14409 21.1935 0.581858C21.4922 0.185796 22.0542 0.108345 22.4481 0.407051C22.8441 0.705757 22.9216 1.26778 22.6229 1.66163C20.7222 4.18182 18.9211 6.81042 17.2705 9.47664C17.1001 9.75101 16.808 9.90148 16.5071 9.90148H16.5093Z" fill="#303E3D"/>
<path d="M23.937 124.706L4.23793 111.528C3.91488 111.311 3.92152 110.833 4.25342 110.627L20.8814 100.305C21.2133 100.1 21.6447 100.305 21.6956 100.69L24.7668 124.191C24.8265 124.647 24.3198 124.961 23.937 124.706Z" fill="white"/>
<path d="M24.2333 125.678C23.9612 125.678 23.6868 125.596 23.4478 125.436L3.74875 112.258C3.34826 111.99 3.11151 111.541 3.12036 111.057C3.12921 110.574 3.37924 110.134 3.78857 109.879L20.4165 99.5575C20.8259 99.303 21.3326 99.2743 21.7685 99.4801C22.2043 99.688 22.5031 100.097 22.565 100.575L25.6361 124.076C25.7092 124.633 25.4569 125.164 24.979 125.461C24.7467 125.605 24.49 125.675 24.2311 125.675L24.2333 125.678ZM5.17147 111.092L23.7952 123.554L20.8923 101.334L5.17147 111.094V111.092Z" fill="#303E3D"/>
</svg>
