<svg width="25" height="127" viewBox="0 0 25 127" fill="none" xmlns="http://www.w3.org/2000/svg">
<path d="M5.98334 118.584C5.80412 118.584 5.62269 118.531 5.4656 118.42C5.06068 118.135 4.96552 117.575 5.25095 117.17C7.07416 114.594 8.78896 111.91 10.3467 109.189C10.5923 108.76 11.141 108.611 11.5703 108.857C11.9995 109.103 12.1477 109.651 11.9021 110.081C10.3157 112.851 8.5699 115.583 6.7135 118.205C6.5387 118.453 6.26213 118.584 5.98113 118.584H5.98334ZM15.4689 102.022C15.345 102.022 15.2211 101.998 15.1016 101.942C14.6502 101.739 14.4489 101.208 14.6524 100.756C15.9446 97.8845 17.1085 94.9196 18.1108 91.9436C18.2679 91.4745 18.7768 91.2222 19.2459 91.3793C19.715 91.5364 19.9672 92.0453 19.8101 92.5144C18.7901 95.5457 17.6041 98.566 16.2876 101.491C16.1393 101.823 15.8119 102.02 15.4711 102.02L15.4689 102.022ZM21.5559 83.9338C21.4895 83.9338 21.4209 83.9272 21.3545 83.9117C20.8722 83.8011 20.5712 83.3209 20.6819 82.8386C21.3855 79.7807 21.9431 76.6454 22.3436 73.5211C22.4055 73.0299 22.8569 72.6826 23.3459 72.7467C23.8371 72.8087 24.1845 73.2579 24.1203 73.7491C23.7132 76.9308 23.1423 80.1259 22.4276 83.2413C22.3325 83.655 21.963 83.936 21.5559 83.936V83.9338ZM23.9853 65.0047C23.9853 65.0047 23.9676 65.0047 23.9588 65.0047C23.4632 64.9892 23.0759 64.5777 23.0892 64.082C23.118 63.1262 23.1313 62.1615 23.1313 61.21C23.1313 59.0151 23.0538 56.7958 22.9034 54.6142C22.8702 54.1208 23.2419 53.6915 23.7353 53.6583C24.231 53.6229 24.658 53.9969 24.6912 54.4903C24.8461 56.714 24.9235 58.9753 24.9235 61.21C24.9235 62.1792 24.908 63.1616 24.8793 64.1351C24.8638 64.6197 24.4655 65.0047 23.9831 65.0047H23.9853ZM22.6688 45.9606C22.2396 45.9606 21.8612 45.6508 21.786 45.2149C21.2594 42.1194 20.5735 39.0085 19.7437 35.9727C19.6132 35.4948 19.8942 35.0036 20.3721 34.873C20.8501 34.7425 21.3435 35.0235 21.4718 35.5014C22.317 38.5947 23.0184 41.7632 23.5539 44.9162C23.6358 45.4052 23.3083 45.8676 22.8193 45.9495C22.7684 45.9583 22.7175 45.9628 22.6688 45.9628V45.9606ZM17.6417 27.5492C17.2811 27.5492 16.9403 27.3302 16.8031 26.9717C15.6858 24.0422 14.4091 21.1237 13.0085 18.296C12.7894 17.8534 12.9708 17.3158 13.4134 17.0945C13.8559 16.8755 14.3936 17.0569 14.6148 17.4994C16.0398 20.3758 17.3408 23.3474 18.4781 26.3323C18.6551 26.7947 18.4228 27.3125 17.9603 27.4895C17.8564 27.5293 17.7479 27.5492 17.6417 27.5492ZM9.17176 10.4455C8.87084 10.4455 8.57876 10.2951 8.40839 10.0207C6.75776 7.35447 4.95669 4.72586 3.05603 2.20567C2.75733 1.80961 2.83696 1.2476 3.23081 0.951107C3.62687 0.652401 4.18889 0.732051 4.48539 1.1259C6.41923 3.68813 8.25129 6.36322 9.93068 9.07592C10.1918 9.49632 10.0612 10.0495 9.64084 10.3106C9.49481 10.4013 9.33107 10.4455 9.16955 10.4455H9.17176Z" fill="#303E3D"/>
<path d="M1.74619 125.246L21.4453 112.068C21.7683 111.851 21.7617 111.373 21.4298 111.167L4.80186 100.845C4.46996 100.639 4.03848 100.845 3.98759 101.23L0.916453 124.73C0.856712 125.186 1.36341 125.5 1.74619 125.246Z" fill="white"/>
<path d="M1.44773 126.22C1.19106 126.22 0.932185 126.149 0.699859 126.003C0.221929 125.706 -0.0303051 125.175 0.0427119 124.618L3.11385 101.117C3.17581 100.639 3.47451 100.23 3.9104 100.022C4.3485 99.8139 4.85298 99.8427 5.26231 100.099L21.8903 110.421C22.2996 110.676 22.5497 111.116 22.5585 111.601C22.5674 112.083 22.3328 112.532 21.9301 112.8L2.23101 125.978C1.98984 126.14 1.71767 126.22 1.44552 126.22H1.44773ZM4.78881 101.874L1.88583 124.093L20.5118 111.632L4.79102 101.872L4.78881 101.874Z" fill="#303E3D"/>
</svg>
